<?xml version="1.0" encoding="UTF-8" standalone="no"?>
<!-- Generator: Adobe Illustrator 16.0.2, SVG Export Plug-In . SVG Version: 6.00 Build 0)  -->

<svg
   version="1.1"
   id="Layer_1"
   sodipodi:docname="cuisine_african.svg"
   inkscape:version="1.3.2 (091e20e, 2023-11-25, custom)"
   inkscape:output_extension="org.inkscape.output.svg.inkscape"
   sodipodi:version="0.32"
   x="0px"
   y="0px"
   width="576px"
   height="576px"
   viewBox="0 0 576 576"
   enable-background="new 0 0 576 576"
   xml:space="preserve"
   xmlns:inkscape="http://www.inkscape.org/namespaces/inkscape"
   xmlns:sodipodi="http://sodipodi.sourceforge.net/DTD/sodipodi-0.dtd"
   xmlns="http://www.w3.org/2000/svg"
   xmlns:svg="http://www.w3.org/2000/svg">
<defs
   id="defs1485">
	<inkscape:perspective
   id="perspective2469"
   inkscape:persp3d-origin="288 : 192 : 1"
   sodipodi:type="inkscape:persp3d"
   inkscape:vp_x="0 : 288 : 1"
   inkscape:vp_y="0 : 1000 : 0"
   inkscape:vp_z="576 : 288 : 1" />
</defs>
<sodipodi:namedview
   id="base"
   inkscape:current-layer="Layer_1"
   inkscape:window-y="-8"
   inkscape:window-x="-8"
   inkscape:window-height="1017"
   inkscape:window-width="1920"
   inkscape:pageshadow="2"
   inkscape:pageopacity="0.0"
   objecttolerance="10.0"
   inkscape:cy="447.59859"
   borderopacity="1.0"
   showgrid="false"
   inkscape:cx="-149.19953"
   bordercolor="#666666"
   pagecolor="#ffffff"
   inkscape:zoom="0.70710678"
   guidetolerance="10.0"
   gridtolerance="10.0"
   inkscape:showpageshadow="2"
   inkscape:pagecheckerboard="0"
   inkscape:deskcolor="#d1d1d1"
   inkscape:window-maximized="1" />



<text
   xml:space="preserve"
   style="font-weight:normal;font-size:53.33333333px;font-family:Arial;-inkscape-font-specification:Arial;fill:#000000;stroke:#0071b3;stroke-width:1.06583;font-style:normal;font-stretch:normal;font-variant:normal"
   x="196.5255"
   y="249.29623"
   id="text1"><tspan
     sodipodi:role="line"
     id="tspan1"
     x="196.5255"
     y="249.29623" /></text><g
   inkscape:groupmode="layer"
   id="layer1"
   inkscape:label="Layer 1"><rect
     style="fill:none;stroke:#000000;stroke-width:28.4709;stroke-dasharray:none"
     id="rect1"
     width="547.43323"
     height="547.43329"
     x="15.612544"
     y="13.792862" /></g><path
   style="fill:#000000;stroke-width:1.26663"
   d="m 301.47701,517.85597 c -1.35228,-1.02282 -3.39408,-1.85967 -4.53734,-1.85967 -1.27202,0 -2.60663,-1.72032 -3.43923,-4.43319 -0.76541,-2.49395 -0.85838,-4.43319 -0.21252,-4.43319 3.09661,0 0.30444,-7.25335 -7.839,-20.3637 -12.03177,-19.37031 -11.28705,-17.61424 -13.16154,-31.03509 -1.57898,-11.30511 -2.09816,-12.60273 -10.66528,-26.65658 -10.90017,-17.88103 -11.95436,-22.84283 -7.89831,-37.17551 1.72484,-6.09505 3.92914,-10.69156 6.34691,-13.23492 5.43601,-5.71835 6.06523,-10.71731 2.36603,-18.7974 -2.26509,-4.94763 -2.75662,-7.37739 -1.88675,-9.32683 0.89784,-2.01214 0.24697,-4.47725 -2.74939,-10.413 -2.15914,-4.27722 -3.98746,-8.20757 -4.06292,-8.73409 -0.0755,-0.52651 -0.63891,-2.27686 -1.2521,-3.88967 -0.61319,-1.6128 -1.11488,-3.59873 -1.11488,-4.41316 0,-0.81444 -3.60807,-4.90971 -8.01793,-9.10058 -9.42482,-8.95684 -15.83101,-18.97893 -12.86017,-20.11895 1.03329,-0.3965 1.8787,-1.87877 1.8787,-3.29393 0,-1.56797 0.86581,-2.61206 2.21659,-2.673 1.40962,-0.0636 1.62094,-0.339 0.58045,-0.75649 -1.29852,-0.52101 -1.31533,-1.04305 -0.0815,-2.52979 1.23417,-1.48707 1.2139,-2.08393 -0.0983,-2.89489 -1.33959,-0.82791 -1.24897,-2.23787 0.47798,-7.43724 1.55487,-4.68126 1.77897,-7.0733 0.829,-8.84835 -0.71607,-1.33799 -0.94201,-2.79263 -0.50209,-3.23255 0.43993,-0.43992 -0.168,-0.79986 -1.35094,-0.79986 -1.18294,0 -2.50848,-0.9321 -2.94564,-2.07133 -0.68241,-1.77831 -2.26456,-1.95835 -11.1846,-1.2727 l -10.38976,0.79862 -4.50112,-6.77919 c -3.96735,-5.97526 -5.11733,-6.86184 -9.69729,-7.47614 -6.86649,-0.92099 -18.34093,1.8624 -30.12743,7.3081 -9.55282,4.41366 -9.58075,4.41805 -15.98988,2.51474 -7.63677,-2.26787 -16.89884,-1.42888 -24.08726,2.18193 -6.48559,3.25778 -10.16186,1.76995 -21.29369,-8.61776 -4.647031,-4.33639 -9.634371,-8.26054 -11.082991,-8.7203 -1.4486,-0.45978 -2.63382,-1.56417 -2.63382,-2.45423 0,-0.89005 -1.12653,-2.63776 -2.50339,-3.88381 -1.37686,-1.24603 -2.17694,-2.79373 -1.77794,-3.43932 1.05258,-1.70312 -2.17192,-8.97396 -4.838,-10.90908 -1.25418,-0.91031 -2.28031,-2.79639 -2.28031,-4.19129 0,-1.3949 -0.5054,-2.22383 -1.12311,-1.84205 -0.61772,0.38176 -1.78147,-0.0992 -2.58612,-1.06871 -1.10912,-1.3364 -1.0999,-1.88385 0.0381,-2.26319 1.13254,-0.37752 1.09341,-1.26219 -0.15937,-3.60303 -0.99216,-1.85387 -1.87245,-2.46675 -2.18712,-1.52273 -0.28965,0.86894 -1.08276,1.5799 -1.762457,1.5799 -0.67971,0 -0.920471,-0.51025 -0.535036,-1.1339 0.385434,-0.62365 -0.09981,-1.44113 -1.078343,-1.81662 -1.43277,-0.54981 -1.522852,-1.6924 -0.462711,-5.86899 1.118672,-4.40727 0.974036,-5.5646 -0.962915,-7.70492 -2.206274,-2.4379 -2.176989,-2.62956 0.91363,-5.98002 4.519302,-4.89924 7.830562,-13.69674 8.215572,-21.82749 0.18144,-3.83154 0.49338,-8.96138 0.69322,-11.39964 0.24342,-2.97012 -0.14863,-4.3322 -1.18793,-4.1272 -1.21294,0.23924 -1.22419,-0.45139 -0.0516,-3.16656 2.2797,-5.27868 12.16209,-18.9549 14.28555,-19.76974 1.03206,-0.39605 3.13025,-3.3007 4.66263,-6.45479 1.53238,-3.1541 3.75362,-6.04179 4.936111,-6.41709 1.18247,-0.3753 3.49268,-2.65494 5.13378,-5.06585 2.0878,-3.06716 4.81526,-4.994855 9.08276,-6.419465 7.30559,-2.4388 16.06702,-10.29933 16.06702,-14.41492 0,-5.32066 4.97793,-11.25509 13.38457,-15.95634 4.46568,-2.49736 9.36706,-6.34763 10.89197,-8.55619 1.5249,-2.20854 3.71583,-4.94629 4.86874,-6.08387 1.94044,-1.91466 2.21395,-1.87979 3.68092,0.46921 1.28729,2.06127 2.5158,2.41268 6.54523,1.87221 2.9662,-0.39785 4.96051,-0.14521 4.96051,0.62842 0,1.91903 10.53577,-1.13392 21.53265,-6.2395 4.10778,-1.90716 9.47736,-2.41053 36.09886,-3.3841 4.17987,-0.15285 8.90957,-0.722434 10.51045,-1.265728 1.7977,-0.610083 3.60778,-0.409272 4.73372,0.525182 1.00266,0.832136 2.71233,1.171726 3.79924,0.754636 1.76496,-0.677284 1.77527,-0.47146 0.0965,1.92538 -1.65258,2.35939 -1.65559,3.02586 -0.025,5.51445 1.71428,2.61632 1.61226,2.98961 -1.34696,4.92856 -1.76094,1.15381 -3.2017,2.95993 -3.2017,4.01359 0,2.35685 10.1827,6.89223 15.47423,6.89223 6.52499,0 13.8343,2.80059 15.21432,5.82941 0.85476,1.87599 3.19319,3.29427 7.02053,4.258 3.1564,0.79479 7.42127,2.31506 9.47751,3.37838 3.05238,1.57844 4.41223,1.6543 7.40843,0.41324 2.96522,-1.22824 3.66981,-2.2967 3.66981,-5.56502 0,-3.39553 0.73055,-4.3933 4.5504,-6.21488 5.08578,-2.42523 12.54955,-1.7753 13.6882,1.19195 0.39999,1.04238 2.46408,1.77543 4.99915,1.77543 2.37482,0 5.02741,0.85497 5.89466,1.89994 0.94563,1.13941 3.71575,1.89994 6.92023,1.89994 2.93889,0 8.04762,0.81385 11.35276,1.80855 5.50552,1.65691 6.48693,1.60382 11.70595,-0.63331 3.13315,-1.34303 6.41714,-2.44187 7.29774,-2.44187 2.64287,0 7.05525,4.55082 7.05525,7.27658 0,1.40045 0.8487,3.25061 1.886,4.1115 1.03729,0.86087 1.60018,2.02768 1.25086,2.5929 -0.34933,0.56522 1.11041,2.92306 3.24385,5.23965 2.13346,2.31659 6.24822,8.486825 9.14393,13.711665 2.89571,5.22483 6.51163,10.74762 8.03538,12.27285 1.52375,1.52522 2.52459,3.01902 2.22407,3.31954 -1.21956,1.21956 2.52494,6.92254 5.82533,8.87212 3.96676,2.34322 5.60627,5.83703 7.66275,16.32936 1.19818,6.11321 2.06719,7.63027 5.63335,9.83428 3.12705,1.93262 5.30353,5.07925 8.42288,12.17728 3.57884,8.14356 4.4315,9.26319 5.71637,7.50603 0.96948,-1.32583 1.80715,-1.5846 2.33979,-0.72279 0.45631,0.73834 0.24393,1.34242 -0.47197,1.34242 -2.39371,0 0.12681,3.81219 2.99679,4.53251 4.42103,1.1096 20.53543,17.92597 18.82078,19.64063 -1.02669,1.0267 -0.0775,2.60114 3.53658,5.86626 4.6138,4.16829 5.18895,4.35976 8.71228,2.90034 2.0748,-0.8594 4.68388,-1.21277 5.79797,-0.78526 1.11409,0.42752 3.24609,-0.0775 4.73778,-1.12238 1.49169,-1.04483 4.74475,-1.89969 7.22902,-1.89969 2.48427,0 6.76932,-1.14836 9.52233,-2.55193 2.75302,-1.40356 5.65953,-2.30094 6.45892,-1.99419 1.62625,0.62405 2.99716,10.87926 1.45433,10.87926 -0.5409,0 -0.98344,1.69877 -0.98344,3.77504 0,5.8196 -14.05023,36.85084 -20.15911,44.52327 -2.9419,3.69488 -9.01751,9.74398 -13.50137,13.44248 -4.48385,3.69849 -11.1269,10.69922 -14.76232,15.55718 -3.63543,4.85795 -7.37074,8.83264 -8.30071,8.83264 -0.92996,0 -1.34005,0.56756 -0.91134,1.26125 0.42872,0.69368 -0.63315,1.90488 -2.3597,2.69154 -2.08816,0.95144 -4.4282,4.31315 -6.98923,10.04079 -5.16061,11.54148 -5.86175,14.73203 -3.78684,17.23215 1.14298,1.3772 1.72054,5.74822 1.74179,13.18184 0.0303,10.59071 0.19703,11.25139 3.49469,13.84533 2.68536,2.11231 3.19605,3.22252 2.27446,4.94455 -0.65366,1.22136 -1.03024,7.59344 -0.83685,14.16019 0.33776,11.4697 0.19949,12.1685 -3.51373,17.75755 -3.15577,4.75003 -5.56357,6.58223 -13.11693,9.98124 -6.20225,2.79102 -10.46648,5.69713 -12.93748,8.817 -2.02721,2.55958 -5.72122,5.7499 -8.20891,7.08961 -5.10589,2.74971 -5.52821,4.84296 -2.55023,12.64067 1.4669,3.84104 1.70606,6.75705 0.93254,11.37084 -1.02251,6.09904 -1.20759,6.30264 -10.83386,11.91804 -6.02823,3.51652 -9.34129,6.16529 -8.61718,6.88939 2.36985,2.36985 -3.59707,13.58512 -11.35554,21.34361 -4.16038,4.16038 -7.56434,8.04126 -7.56434,8.62419 0,0.58293 -4.65378,4.32084 -10.34172,8.30649 -11.67902,8.18371 -21.13796,11.37791 -30.18776,10.19415 -3.91097,-0.51158 -8.28885,0.0441 -13.93547,1.76874 -4.52819,1.38306 -8.23307,2.50088 -8.23307,2.48405 0,-0.0168 -1.10641,-0.86745 -2.45869,-1.89026 z M 407.20748,381.90775 c -1.1065,-4.6124 -1.13885,-6.99025 -0.12097,-8.89218 1.7375,-3.24653 0.4195,-12.22178 -2.10205,-14.31448 -1.62119,-1.34547 -1.74696,-0.60176 -0.96142,5.68549 0.57191,4.57742 0.40917,7.82938 -0.44319,8.85643 -2.14714,2.58713 2.29588,17.80286 4.54246,15.5563 0.32755,-0.32756 -0.0841,-3.42876 -0.91483,-6.89156 z m -22.84099,-33.14591 c 0,-0.71851 -0.85498,-1.63447 -1.89994,-2.03546 -1.04497,-0.40099 -1.89994,-1.27172 -1.89994,-1.93494 0,-0.66323 0.48764,-0.90448 1.08365,-0.53614 2.09407,1.29422 -0.11096,-5.46009 -2.48345,-7.60719 -1.32004,-1.19462 -2.40008,-1.76507 -2.40008,-1.26767 0,0.49742 -0.57153,0.55116 -1.27006,0.11945 -0.84631,-0.52306 -0.83742,-1.59331 0.0267,-3.20786 0.89862,-1.67909 0.84681,-4.28029 -0.16877,-8.47286 -2.27217,-9.38002 -3.65434,-9.36872 -3.65434,0.0299 0,5.12847 0.53076,8.4864 1.34139,8.4864 0.73776,0 1.01345,0.5306 0.61264,1.17912 -0.4008,0.6485 -0.0858,1.57644 0.69997,2.06208 0.78579,0.48565 2.78283,3.94492 4.43788,7.68728 2.7028,6.11148 5.57439,8.94368 5.57439,5.49792 z m 13.02373,-42.35106 c 2.55008,0.40527 4.83878,0.1403 5.30506,-0.61418 0.45384,-0.7343 -0.20326,-1.34577 -1.47123,-1.36909 -2.02018,-0.0371 -1.95408,-0.3235 0.55855,-2.41963 4.6568,-3.88484 3.49833,-5.13799 -4.74985,-5.13799 h -7.59976 v 5.85492 c 0,4.81522 0.3083,5.59904 1.73613,4.41405 0.99172,-0.82305 3.65918,-1.13524 6.2211,-0.72808 z m 7.87201,-13.32944 c 0.44023,-1.38705 0.48752,-3.0282 0.10513,-3.64698 -1.02067,-1.65148 -5.68894,-2.6374 -6.47393,-1.36726 -0.37133,0.60082 -1.51912,0.76854 -2.55065,0.37269 -2.45032,-0.94028 -5.64312,1.76719 -5.64312,4.78532 0,2.03462 0.994,2.37815 6.88109,2.37815 5.75836,0 7.01169,-0.41147 7.68152,-2.52192 z m 49.58545,167.88869 c -2.02867,-1.56498 -2.28836,-3.2591 -1.89994,-12.39486 0.41238,-9.69961 0.7932,-11.01543 4.56644,-15.77804 3.79881,-4.79489 4.1169,-5.91506 4.12127,-14.51335 0.006,-11.71522 2.72944,-16.99817 9.409,-18.25125 2.45743,-0.46103 4.77782,-0.76349 5.15641,-0.67214 1.54944,0.37383 12.02902,-11.18235 12.02902,-13.26481 0,-1.23786 0.38122,-1.86943 0.84718,-1.40347 1.41467,1.41467 5.48595,-3.1613 5.48595,-6.16602 0,-1.54833 0.99747,-3.57863 2.2166,-4.51177 1.21912,-0.93315 1.7871,-1.19093 1.26218,-0.57286 -0.52493,0.61806 -0.18676,2.30921 0.75149,3.75812 2.15088,3.32151 3.62143,18.56829 2.0297,21.04407 -1.04497,1.62534 -1.34865,1.61992 -2.4407,-0.0436 -0.93349,-1.42201 -1.25211,-0.68237 -1.26663,2.94039 -0.0101,2.66218 -0.87436,5.6953 -1.91933,6.74026 -1.04497,1.04497 -1.89994,3.00519 -1.89994,4.35606 0,1.35086 -5.09353,12.63127 -11.31898,25.06759 -10.25848,20.493 -11.66871,22.68144 -15.05175,23.35804 -2.05303,0.41062 -5.08172,1.05567 -6.73045,1.43348 -1.67205,0.38316 -4.03682,-0.11475 -5.34752,-1.12581 z M 438.93143,331.59657 c 0.0608,-1.47554 0.36092,-1.77568 0.76525,-0.76525 0.36589,0.91435 0.3209,2.00681 -0.0999,2.4277 -0.4209,0.42089 -0.72025,-0.32721 -0.66525,-1.66245 z M 227.93809,265.20422 c 0.43055,-0.69664 1.03418,-1.26663 1.34139,-1.26663 0.3072,0 0.55855,0.56999 0.55855,1.26663 0,0.69665 -0.60362,1.26663 -1.34138,1.26663 -0.73776,0 -0.98911,-0.56998 -0.55856,-1.26663 z M 89.242469,99.505985 c 0,-1.53079 2.40304,-3.31552 3.28145,-2.43712 0.31881,0.31881 -0.28909,1.30065 -1.35089,2.18187 -1.20379,0.999045 -1.93056,1.095135 -1.93056,0.25525 z m 12.666271,-0.70807 c 0,-0.26303 0.86802,-1.19862 1.92893,-2.0791 1.61286,-1.33855 1.79821,-1.26018 1.13111,0.47822 -0.6813,1.77549 -3.06004,3.019915 -3.06004,1.60088 z"
   id="path1"
   sodipodi:nodetypes="sssssssssssssssssssssssssssscssssssssssssssssssssssssssssssssssssssssssssssssssssssssssssssssssssssssssssssssssssssssssssssssssssssssssssssssssssssssssssssssssssssssssssssscsssssssssssssscsssssssssscsssssssssssssssssssssssss" /></svg>
