<?xml version="1.0" encoding="UTF-8" standalone="no"?>
<!-- Generator: Adobe Illustrator 16.0.2, SVG Export Plug-In . SVG Version: 6.00 Build 0)  -->

<svg
   version="1.1"
   id="Layer_1"
   sodipodi:docname="cuisine_cake.svg"
   inkscape:version="1.3.2 (091e20e, 2023-11-25, custom)"
   inkscape:output_extension="org.inkscape.output.svg.inkscape"
   sodipodi:version="0.32"
   x="0px"
   y="0px"
   width="576px"
   height="576px"
   viewBox="0 0 576 576"
   enable-background="new 0 0 576 576"
   xml:space="preserve"
   xmlns:inkscape="http://www.inkscape.org/namespaces/inkscape"
   xmlns:sodipodi="http://sodipodi.sourceforge.net/DTD/sodipodi-0.dtd"
   xmlns="http://www.w3.org/2000/svg"
   xmlns:svg="http://www.w3.org/2000/svg">
<defs
   id="defs1485">
	<inkscape:perspective
   id="perspective2469"
   inkscape:persp3d-origin="288 : 192 : 1"
   sodipodi:type="inkscape:persp3d"
   inkscape:vp_x="0 : 288 : 1"
   inkscape:vp_y="0 : 1000 : 0"
   inkscape:vp_z="576 : 288 : 1" />
</defs>
<sodipodi:namedview
   id="base"
   inkscape:current-layer="Layer_1"
   inkscape:window-y="-8"
   inkscape:window-x="-8"
   inkscape:window-height="1017"
   inkscape:window-width="1920"
   inkscape:pageshadow="2"
   inkscape:pageopacity="0.0"
   objecttolerance="10.0"
   inkscape:cy="119"
   borderopacity="1.0"
   showgrid="false"
   inkscape:cx="70"
   bordercolor="#666666"
   pagecolor="#ffffff"
   inkscape:zoom="0.5"
   guidetolerance="10.0"
   gridtolerance="10.0"
   inkscape:showpageshadow="2"
   inkscape:pagecheckerboard="0"
   inkscape:deskcolor="#d1d1d1"
   inkscape:window-maximized="1" />



<text
   xml:space="preserve"
   style="font-weight:normal;font-size:53.33333333px;font-family:Arial;-inkscape-font-specification:Arial;fill:#000000;stroke:#0071b3;stroke-width:1.06583;font-style:normal;font-stretch:normal;font-variant:normal"
   x="196.5255"
   y="249.29623"
   id="text1"><tspan
     sodipodi:role="line"
     id="tspan1"
     x="196.5255"
     y="249.29623" /></text><g
   inkscape:groupmode="layer"
   id="layer1"
   inkscape:label="Layer 1"><rect
     style="fill:none;stroke:#000000;stroke-width:28.4709;stroke-dasharray:none"
     id="rect1"
     width="547.43323"
     height="547.43329"
     x="15.612544"
     y="13.792862" /></g><polygon
   style="fill:#2ba5f7"
   points="37.621,344.45 37.621,375.517 37.621,489.128 474.365,489.128 474.365,375.517 474.365,344.45 474.365,291.158 37.621,291.158 "
   id="polygon1"
   transform="matrix(0.8671875,0,0,0.8671875,67.04652,66)" /><path
   style="fill:#e54728;stroke-width:0.867188"
   d="m 309.69513,127.94494 c -2.52525,2.52525 -5.39218,4.4955 -8.46029,5.89947 -3.85811,1.76993 -8.02321,2.65446 -12.18832,2.65446 -7.48036,0 -14.94944,-2.8435 -20.6486,-8.55393 -11.40958,-11.39832 -11.40958,-29.88675 0,-41.29721 L 289.04652,66 309.69513,86.6486 c 11.39744,11.40959 11.39744,29.89889 0,41.29634 z"
   id="path1" /><path
   style="fill:#f95428;stroke-width:0.867188"
   d="m 309.69513,127.94494 c -2.52525,2.52525 -5.39218,4.4955 -8.46029,5.89947 -3.05597,-1.40397 -5.93503,-3.37422 -8.44814,-5.89947 -11.40958,-11.39832 -11.40958,-29.88675 0,-41.29721 l 8.46028,-8.44814 8.44815,8.44814 c 11.39744,11.41046 11.39744,29.89976 0,41.29721 z"
   id="path2" /><path
   style="fill:#f7b239;stroke-width:0.867188"
   d="m 321.78892,162.35407 v 86.33632 h -65.4848 v -86.33632 c 0,-6.94704 5.63152,-12.58029 12.58029,-12.58029 h 40.32422 c 6.94878,0 12.58029,5.63238 12.58029,12.58029 z"
   id="path3" /><path
   style="fill:#e09b2d;stroke-width:0.867188"
   d="m 276.95273,149.77378 v 83.18323 H 256.30412 V 162.3532 c 0,-6.94704 5.63152,-12.58029 12.58029,-12.58029 h 8.06832 z"
   id="path4" /><path
   style="fill:#b27214;stroke-width:0.867188"
   d="m 477.3719,272.46087 -17.91089,32.76928 c -10.65427,9.95878 -27.19674,9.95878 -37.86314,0 l -0.0121,-0.0234 c -10.65427,-9.95878 -27.20888,-9.95878 -37.86314,0 l -0.0121,0.0122 c -10.65427,9.95878 -27.20888,9.95878 -37.86315,0 l -0.0121,-0.0122 c -10.65426,-9.95878 -27.20887,-9.95878 -37.86314,0.0122 h -0.0121 c -5.32106,4.97939 -12.12935,7.46908 -18.93764,7.46908 -6.79615,0 -13.59229,-2.48969 -18.9255,-7.46908 -5.3332,-4.9794 -12.12935,-7.46909 -18.93764,-7.46909 -6.80829,0 -13.60444,2.48969 -18.93764,7.46909 -5.3332,4.97939 -12.12935,7.46908 -18.9255,7.46908 -6.80829,0 -13.61658,-2.48969 -18.93764,-7.46908 -5.3332,-4.9794 -12.14149,-7.46909 -18.94978,-7.46909 -6.79615,0 -13.5923,2.48969 -18.9255,7.46909 -10.65427,9.95878 -27.20888,9.95878 -37.86314,0 l -17.91089,-32.74587 c 4.68454,-22.55988 24.67148,-39.51513 48.62407,-39.51513 h 106.97018 65.48479 106.95891 c 23.95345,-8.7e-4 43.94039,16.9431 48.62494,39.50299 z"
   id="path5" /><g
   id="g6"
   transform="matrix(0.8671875,0,0,0.8671875,67.04652,66)">
	<rect
   x="37.620998"
   y="353.74701"
   style="fill:#f7b239"
   width="436.74399"
   height="63.269001"
   id="rect5" />
	<path
   style="fill:#f7b239"
   d="m 474.365,249.796 v 63.133 H 37.621 v -63.133 c 0,-4.014 0.408,-7.919 1.197,-11.701 l 20.654,19.28 c 12.286,11.484 31.376,11.484 43.662,0 6.15,-5.742 13.987,-8.613 21.824,-8.613 7.851,0 15.702,2.871 21.852,8.613 6.136,5.742 13.987,8.613 21.838,8.613 7.837,0 15.674,-2.871 21.824,-8.613 6.15,-5.742 13.987,-8.613 21.838,-8.613 7.851,0 15.688,2.871 21.838,8.613 6.15,5.742 13.987,8.613 21.824,8.613 7.851,0 15.702,-2.871 21.838,-8.613 h 0.014 c 12.286,-11.497 31.376,-11.497 43.662,-0.014 l 0.014,0.014 c 12.286,11.484 31.376,11.484 43.662,0 l 0.014,-0.014 c 12.286,-11.484 31.376,-11.484 43.662,0 l 0.014,0.027 c 12.3,11.484 31.376,11.484 43.662,0 l 20.654,-19.307 c 0.789,3.782 1.197,7.701 1.197,11.715 z"
   id="path6" />
</g><rect
   x="99.670959"
   y="418.98172"
   style="fill:#2197d8;stroke-width:0.867188"
   width="76.292549"
   height="56.242313"
   id="rect6" /><path
   style="fill:#995c0d;stroke-width:0.867188"
   d="m 225.6265,232.95701 c -23.95259,0 -43.93952,16.95525 -48.62407,39.51513 -0.62524,2.997 -0.97905,6.08852 -1.02675,9.26243 -0.18905,-0.0121 -0.37723,-0.0121 -0.56627,-0.0121 -6.79615,0 -13.5923,26.39459 -18.9255,31.37398 -10.65427,9.95878 -27.20888,9.95878 -37.86314,0 l -17.9109,-40.62427 c 4.68455,-22.55988 24.67149,-39.51513 48.62408,-39.51513 z"
   id="path7" /><rect
   x="99.670959"
   y="330.28842"
   style="fill:#2197d8;stroke-width:0.867188"
   width="76.292549"
   height="49.556297"
   id="rect7" /><g
   id="g8"
   transform="matrix(0.8671875,0,0,0.8671875,67.04652,66)">
	<rect
   x="37.620998"
   y="353.74701"
   style="fill:#e09b2d"
   width="87.976997"
   height="63.269001"
   id="rect8" />
	<path
   style="fill:#e09b2d"
   d="m 124.959,248.762 c 0.218,0 0.435,0 0.653,0.014 -0.014,0.34 -0.014,0.68 -0.014,1.02 v 63.133 H 37.621 v -63.133 c 0,-4.014 0.408,-7.919 1.197,-11.701 l 20.654,19.28 c 12.286,11.484 31.376,11.484 43.662,0 6.151,-5.743 13.988,-8.613 21.825,-8.613 z"
   id="path8" />
</g><path
   style="fill:#f7b239;stroke-width:0.867188"
   d="m 175.97568,281.73457 c 0.82556,0.0121 1.65199,0.059 2.47755,0.16477 -0.82556,-0.0937 -1.65112,-0.14136 -2.47755,-0.16477 z"
   id="path9" /><path
   style="fill:#e6e6e6;stroke-width:0.867188"
   d="m 504.958,466.56778 -10.31259,24.64807 C 489.89062,502.58988 478.7646,510 466.43406,510 H 111.64684 C 99.31717,510 88.19029,502.58988 83.4355,491.21585 L 73.13505,466.56778 h 26.53593 378.73894 z"
   id="path10" /><path
   style="fill:#cccccc;stroke-width:0.867188"
   d="m 165.92324,510 h -54.2764 C 99.31717,510 88.19029,502.58988 83.4355,491.21585 L 73.13505,466.56778 h 54.27553 l 10.30045,24.64807 C 142.46669,502.58988 153.5927,510 165.92324,510 Z"
   id="path11" /></svg>
