<?xml version="1.0" encoding="UTF-8" standalone="no"?>
<!-- Generator: Adobe Illustrator 16.0.2, SVG Export Plug-In . SVG Version: 6.00 Build 0)  -->

<svg
   version="1.1"
   id="Layer_1"
   sodipodi:docname="cuisine_donut.svg"
   inkscape:version="1.3.2 (091e20e, 2023-11-25, custom)"
   inkscape:output_extension="org.inkscape.output.svg.inkscape"
   sodipodi:version="0.32"
   x="0px"
   y="0px"
   width="576px"
   height="576px"
   viewBox="0 0 576 576"
   enable-background="new 0 0 576 576"
   xml:space="preserve"
   xmlns:inkscape="http://www.inkscape.org/namespaces/inkscape"
   xmlns:sodipodi="http://sodipodi.sourceforge.net/DTD/sodipodi-0.dtd"
   xmlns="http://www.w3.org/2000/svg"
   xmlns:svg="http://www.w3.org/2000/svg">
<defs
   id="defs1485">
	<inkscape:perspective
   id="perspective2469"
   inkscape:persp3d-origin="288 : 192 : 1"
   sodipodi:type="inkscape:persp3d"
   inkscape:vp_x="0 : 288 : 1"
   inkscape:vp_y="0 : 1000 : 0"
   inkscape:vp_z="576 : 288 : 1" />
</defs>
<sodipodi:namedview
   id="base"
   inkscape:current-layer="Layer_1"
   inkscape:window-y="-8"
   inkscape:window-x="-8"
   inkscape:window-height="1017"
   inkscape:window-width="1920"
   inkscape:pageshadow="2"
   inkscape:pageopacity="0.0"
   objecttolerance="10.0"
   inkscape:cy="119"
   borderopacity="1.0"
   showgrid="false"
   inkscape:cx="70"
   bordercolor="#666666"
   pagecolor="#ffffff"
   inkscape:zoom="0.5"
   guidetolerance="10.0"
   gridtolerance="10.0"
   inkscape:showpageshadow="2"
   inkscape:pagecheckerboard="0"
   inkscape:deskcolor="#d1d1d1"
   inkscape:window-maximized="1" />



<text
   xml:space="preserve"
   style="font-weight:normal;font-size:53.33333333px;font-family:Arial;-inkscape-font-specification:Arial;fill:#000000;stroke:#0071b3;stroke-width:1.06583;font-style:normal;font-stretch:normal;font-variant:normal"
   x="196.5255"
   y="249.29623"
   id="text1"><tspan
     sodipodi:role="line"
     id="tspan1"
     x="196.5255"
     y="249.29623" /></text><g
   inkscape:groupmode="layer"
   id="layer1"
   inkscape:label="Layer 1"><rect
     style="fill:none;stroke:#000000;stroke-width:28.4709;stroke-dasharray:none"
     id="rect1"
     width="547.43323"
     height="547.43329"
     x="15.612544"
     y="13.792862" /></g><path
   d="M 294.62099,65.95734 C 169.46401,65.95734 68,167.42135 68,292.57833 68,417.7353 169.46401,519.1993 294.62099,519.1993 c 125.15698,0 226.621,-101.464 226.621,-226.62097 0,-125.15698 -101.46402,-226.62099 -226.621,-226.62099 z m 0,313.68676 c -50.96859,0 -92.27074,-41.30219 -92.27074,-92.27079 0,-50.9686 41.30215,-92.27073 92.27074,-92.27073 50.96861,0 92.27074,41.30213 92.27074,92.27073 0,50.9686 -41.33594,92.27079 -92.27074,92.27079 z"
   fill="#db9145"
   id="path1"
   style="stroke-width:0.479025" /><path
   d="M 294.62099,65.95734 C 169.46401,65.95734 68,167.42135 68,292.57833 c 0,28.0868 5.13742,54.92306 14.46589,79.73138 8.75389,-9.76785 21.90162,-24.30134 24.09854,-25.88988 3.34609,-2.43352 16.76422,-17.67678 25.5857,10.03824 3.65027,7.90892 14.93907,42.65413 40.82896,13.11394 4.56284,-4.25865 24.36894,-18.58934 25.5857,19.80609 0,24.9773 7.90892,54.2133 16.46002,57.5594 8.55109,3.3461 20.11028,6.0838 23.76056,-22.848 2.7377,-7.9089 18.28515,-39.0038 38.09125,4.5628 9.42987,25.5857 17.0684,65.5021 38.09126,65.5021 21.02286,0 43.87085,-80.4074 50.56301,-94.1297 7.30054,-11.5592 24.06475,-28.32336 46.00018,-3.0419 12.50555,12.1676 28.32339,26.1941 29.54015,-13.4181 1.21676,-39.61219 3.04189,-42.95827 3.95446,-46.00016 0.91257,-3.04189 14.93907,-26.19408 38.39544,8.5173 6.11759,10.30864 16.08823,39.44316 28.22201,11.93098 6.25277,-20.75247 9.66645,-42.72169 9.66645,-65.50209 C 521.24198,167.42135 419.77797,65.95734 294.62099,65.95734 Z m 0,313.68676 c -50.96859,0 -92.27074,-41.30219 -92.27074,-92.27079 0,-50.9686 41.30215,-92.27073 92.27074,-92.27073 50.96861,0 92.27074,41.30213 92.27074,92.27073 0,50.9686 -41.33594,92.27079 -92.27074,92.27079 z"
   fill="#5b2b20"
   id="path2"
   style="stroke-width:0.479025" /><path
   d="m 381.38253,160.3236 m -10.07205,0 a 10.072045,10.072045 0 1 0 20.14409,0 10.072045,10.072045 0 1 0 -20.14409,0 z"
   fill="#eba824"
   id="path3"
   style="stroke-width:0.479025" /><path
   d="m 450.0279,184.59114 m -9.70025,0 a 9.7002573,9.7002573 0 1 0 19.40051,0 9.7002573,9.7002573 0 1 0 -19.40051,0 z"
   fill="#eba824"
   id="path4"
   style="stroke-width:0.479025" /><path
   d="m 286.0361,113.61365 m -18.25136,0 a 18.251357,18.251357 0 1 0 36.50271,0 18.251357,18.251357 0 1 0 -36.50271,0 z"
   fill="#3d7c38"
   id="path5"
   style="stroke-width:0.479025" /><path
   d="m 214.95721,172.45737 m -12.13377,0 a 12.133772,12.133772 0 1 0 24.26754,0 12.133772,12.133772 0 1 0 -24.26754,0 z"
   fill="#fffcf4"
   id="path6"
   style="stroke-width:0.479025" /><path
   d="m 116.56888,278.04484 m -22.64519,0 a 22.6452,22.6452 0 1 0 45.2904,0 22.6452,22.6452 0 1 0 -45.2904,0 z"
   fill="#fdfdec"
   id="path7"
   style="stroke-width:0.479025" /><path
   d="m 483.25213,278.04484 m -22.6452,0 a 22.6452,22.6452 0 1 0 45.2904,0 22.6452,22.6452 0 1 0 -45.2904,0 z"
   fill="#f5ecda"
   id="path8"
   style="stroke-width:0.479025" /><path
   d="m 139.34928,195.10258 c 0,0 31.46669,1.92652 35.21836,25.41669 -10.03825,1.55475 -29.54016,2.8729 -35.21836,-25.41669 z m 292.32587,85.44337 c 0,0 -1.89273,21.25946 -17.84577,23.38878 -0.87877,-6.82737 -1.41955,-20.0765 17.84577,-23.38878 z"
   fill="#3d7c38"
   id="path9"
   style="stroke-width:0.479025" /></svg>
